<?xml version="1.0" encoding="utf-8"?>
<!-- Generator: Adobe Illustrator 22.1.0, SVG Export Plug-In . SVG Version: 6.00 Build 0)  -->
<svg version="1.1" id="Layer_1" xmlns="http://www.w3.org/2000/svg" xmlns:xlink="http://www.w3.org/1999/xlink" x="0px" y="0px"
	 viewBox="0 0 432.8 118.1" style="enable-background:new 0 0 432.8 118.1;" xml:space="preserve">
<style type="text/css">
	.st0{clip-path:url(#SVGID_1_);fill-rule:evenodd;clip-rule:evenodd;fill:#60A6DD;}
	.st1{clip-path:url(#SVGID_1_);fill:#30567A;}
	.st2{clip-path:url(#SVGID_1_);fill-rule:evenodd;clip-rule:evenodd;fill:#528ECC;}
	.st3{clip-path:url(#SVGID_1_);fill-rule:evenodd;clip-rule:evenodd;fill:#467ABC;}
	.st4{clip-path:url(#SVGID_1_);fill-rule:evenodd;clip-rule:evenodd;fill:#63A9DF;}
	.st5{clip-path:url(#SVGID_1_);fill-rule:evenodd;clip-rule:evenodd;fill:#30567A;}
</style>
<g>
	<defs>
		<rect id="SVGID_3_" width="432.8" height="118.1"/>
	</defs>
	<clipPath id="SVGID_1_">
		<use xlink:href="#SVGID_3_"  style="overflow:visible;"/>
	</clipPath>
	<path class="st0" d="M1.1,83.7c0,0.1,0.1,0.3,0.1,0.4L1.1,83.7z"/>
	<path class="st1" d="M185.1,50.1c-3.6,8.4-12.6,14-21.7,14c-13.1,0-24.5-10.9-24.5-24.6c0-13.1,10.9-24.3,24.3-24.3
		c9.3,0,18.3,5.4,22.2,14.3h-9.9c-3.4-3.9-7.3-6.2-12.6-6.2c-8.5,0-15.3,7.9-15.3,16.3c0,8.4,7,16.4,15.6,16.4
		c4.4,0,7.9-1.6,11.8-5.9H185.1z"/>
	<path class="st1" d="M206.8,28.7L206.8,28.7c-0.3-3.1-2-5.3-5.3-5.3c-2.7,0-4.8,2-4.8,4.8c0,3,2,4.8,6,6c9.9,2.9,14.1,7.4,14.1,15
		c0,9.2-6.7,15-15.2,15c-8.2,0-14.8-5.9-15.3-14.4h9.1c0.4,3.9,2.7,6.3,6.2,6.3c3.6,0,6.5-2.6,6.5-6c0-3.4-2.3-5.5-6-6.8
		c-7.4-2.7-14.1-4.8-14.1-14.6c0-8,6.3-13.4,13.8-13.4c7.2,0,13.5,5.5,13.9,13.4H206.8z"/>
	<polygon class="st1" points="244.2,63.2 244.2,24.3 235.5,24.3 235.5,16.2 261.6,16.2 261.6,24.3 252.9,24.3 252.9,63.2 	"/>
	<path class="st1" d="M286.5,63.2l-12.4-18h-0.1v18h-8.7v-47h15.9c9.3,0,15.4,6.6,15.4,14.7c0,4.4-2.3,13.1-12.3,15L297,63.2H286.5z
		 M279.7,38.7c4.9,0,8.2-2.6,8.2-7.2c0-4.6-3.7-7.1-8.2-7.1h-5.8v14.3H279.7z"/>
	<path class="st1" d="M334.2,63.2l-5-12.1h-16.8l-5,12.1h-9.6l19.6-47h6.8l19.7,47H334.2z M320.7,28.5h-0.1l-5.3,14.4h10.8
		L320.7,28.5z"/>
	<path class="st1" d="M392,50.1c-3.6,8.4-12.6,14-21.7,14c-13.1,0-24.5-10.9-24.5-24.6c0-13.1,10.9-24.3,24.3-24.3
		c9.3,0,18.3,5.4,22.2,14.3h-9.9c-3.4-3.9-7.3-6.2-12.6-6.2c-8.5,0-15.3,7.9-15.3,16.3c0,8.4,7,16.4,15.6,16.4
		c4.4,0,7.9-1.6,11.8-5.9H392z"/>
	<polygon class="st1" points="421.7,63.2 407,42.6 406.9,42.6 406.9,63.2 398.2,63.2 398.2,16.2 406.9,16.2 406.9,36.5 407,36.5 
		421.7,16.2 431.9,16.2 414.2,39.3 431.9,63.2 	"/>
	<rect x="144.3" y="77.9" class="st1" width="2.5" height="18.8"/>
	<path class="st1" d="M159.7,86.8v9.9h-2.2v-9.2c0-2-0.7-3-2.3-3c-1.7,0-2.7,1.2-2.7,3.4v8.7h-2.2v-14h2c0,0.7,0,1.3,0,2.1
		c0.6-1.6,2-2.4,3.6-2.4C158.2,82.4,159.7,83.9,159.7,86.8"/>
	<polygon class="st1" points="163.7,82.7 166.7,93.6 169.5,82.7 171.7,82.7 167.8,96.8 165.6,96.8 161.5,82.7 	"/>
	<path class="st1" d="M181.9,84.5c0.8,1.3,1.3,3,1.2,6h-8c0,2.8,1.2,4.5,3,4.5c1.4,0,2.4-0.9,2.7-2.4h2.2c-0.5,2.8-2.3,4.5-4.9,4.5
		c-3.5,0-5.4-3-5.4-7.3c0-4.4,2.1-7.3,5.3-7.3C179.7,82.4,181,83.1,181.9,84.5 M180.8,88.5c-0.1-2.7-1.1-4.2-2.9-4.2
		c-1.7,0-2.9,1.7-2.9,4.2H180.8z"/>
	<path class="st1" d="M193.5,86.5h-2.2c0-1.5-0.8-2.2-2-2.2c-1.1,0-1.8,0.7-1.8,1.8c0,1.1,0.7,1.7,2.9,2.3c2.3,0.6,3.4,2,3.4,4.3
		c0,2.6-1.9,4.3-4.4,4.3c-2.6,0-4.4-1.5-4.6-4.6h2.2c0,1.5,0.9,2.5,2.4,2.5c1.4,0,2.1-1,2.1-2.1c0-1.2-0.6-1.9-2.9-2.6
		c-2.3-0.7-3.4-1.9-3.4-4.1c0-2.3,1.6-3.8,4.2-3.8C192,82.4,193.4,83.9,193.5,86.5"/>
	<polygon class="st1" points="199.3,78.9 199.3,82.7 201.1,82.7 201.1,84.8 199.3,84.8 199.3,96.8 197,96.8 197,84.8 195.3,84.8 
		195.3,82.7 197,82.7 197,78.9 	"/>
	<path class="st1" d="M205.7,80.5h-2.2v-2.6h2.2V80.5z M205.7,96.8h-2.2v-14h2.2V96.8z"/>
	<path class="st1" d="M216.7,85c0-0.8,0-1.3,0-2.3h2v13.9c0,3.4-1.8,5.4-5,5.4c-2.4,0-4.6-1.5-4.8-4.2h2.3c0.2,1.4,1.1,2.1,2.5,2.1
		c2.1,0,2.7-1.5,2.7-3.4c0-0.7,0-1.3,0-2c-0.5,1.6-1.6,2.5-3.3,2.5c-3,0-4.6-2.7-4.6-7.3c0-4.7,1.7-7.3,4.6-7.3
		C214.7,82.4,215.9,83.1,216.7,85 M213.6,94.9c0.9,0,1.5-0.4,2-1.1c0.5-0.8,0.8-1.7,0.8-4c0-2-0.2-3.1-0.7-3.9
		c-0.5-0.7-1-1.2-2.1-1.2c-1.7,0-2.8,1.9-2.8,5.1C210.8,92.9,211.8,94.9,213.6,94.9"/>
	<path class="st1" d="M229.2,85v-2.3h2.1v14h-2.1v-2.2c-0.6,1.7-1.8,2.5-3.4,2.5c-2.8,0-4.6-2.8-4.6-7.3c0-4.7,1.8-7.3,4.6-7.3
		C227.3,82.4,228.6,83.1,229.2,85 M226.3,94.9c0.9,0,1.5-0.4,2-1.1c0.5-0.8,0.8-1.6,0.8-4c0-1.7-0.1-3-0.7-3.9
		c-0.5-0.7-1.1-1.2-2.1-1.2c-1.7,0-2.8,1.9-2.8,5.1C223.5,92.9,224.5,94.9,226.3,94.9"/>
	<polygon class="st1" points="237.5,78.9 237.5,82.7 239.2,82.7 239.2,84.8 237.5,84.8 237.5,96.8 235.2,96.8 235.2,84.8 
		233.4,84.8 233.4,82.7 235.2,82.7 235.2,78.9 	"/>
	<path class="st1" d="M243.8,80.5h-2.2v-2.6h2.2V80.5z M243.8,96.8h-2.2v-14h2.2V96.8z"/>
	<path class="st1" d="M256.9,86.8v9.9h-2.2v-9.2c0-2-0.7-3-2.3-3c-1.7,0-2.7,1.2-2.7,3.4v8.7h-2.2v-14h2c0,0.7,0,1.3,0,2.1
		c0.6-1.6,2-2.4,3.6-2.4C255.4,82.4,256.9,83.9,256.9,86.8"/>
	<path class="st1" d="M267.7,85c0-0.8,0-1.3,0-2.3h2v13.9c0,3.4-1.8,5.4-5,5.4c-2.4,0-4.6-1.5-4.8-4.2h2.3c0.2,1.4,1.1,2.1,2.5,2.1
		c2.1,0,2.7-1.5,2.7-3.4c0-0.7,0-1.3,0-2c-0.5,1.6-1.6,2.5-3.3,2.5c-3,0-4.6-2.7-4.6-7.3c0-4.7,1.7-7.3,4.6-7.3
		C265.7,82.4,266.8,83.1,267.7,85 M264.6,94.9c0.9,0,1.5-0.4,2-1.1c0.5-0.8,0.8-1.7,0.8-4c0-2-0.2-3.1-0.7-3.9
		c-0.5-0.7-1-1.2-2.1-1.2c-1.7,0-2.8,1.9-2.8,5.1C261.8,92.9,262.8,94.9,264.6,94.9"/>
	<path class="st1" d="M291.6,84.8h-2.5c-0.1-3.2-1.3-4.8-3.5-4.8c-2.8,0-4.2,2.7-4.2,7.5c0,4.7,1.6,7.2,4.2,7.2c2,0,3.3-1.4,3.5-4.4
		h2.5c-0.1,4.2-2.5,6.8-6.2,6.8c-4.2,0-6.6-3.6-6.6-9.8c0-6.3,2.4-9.8,6.6-9.8C289.3,77.6,291.6,80.6,291.6,84.8"/>
	<path class="st1" d="M296.7,80.5h-2.2v-2.6h2.2V80.5z M296.7,96.8h-2.2v-14h2.2V96.8z"/>
	<polygon class="st1" points="303.1,78.9 303.1,82.7 304.9,82.7 304.9,84.8 303.1,84.8 303.1,96.8 300.8,96.8 300.8,84.8 
		299.1,84.8 299.1,82.7 300.8,82.7 300.8,78.9 	"/>
	<path class="st1" d="M309.5,80.5h-2.2v-2.6h2.2V80.5z M309.5,96.8h-2.2v-14h2.2V96.8z"/>
	<polygon class="st1" points="321,82.7 321,84.9 314.8,94.6 321.1,94.6 321.1,96.8 312.1,96.8 312.1,94.7 318.3,84.8 312.5,84.8 
		312.5,82.7 	"/>
	<path class="st1" d="M332.3,84.5c0.8,1.3,1.3,3,1.2,6h-8c0,2.8,1.2,4.5,3,4.5c1.4,0,2.4-0.9,2.7-2.4h2.2c-0.5,2.8-2.3,4.5-4.9,4.5
		c-3.5,0-5.4-3-5.4-7.3c0-4.4,2.1-7.3,5.3-7.3C330.1,82.4,331.4,83.1,332.3,84.5 M331.2,88.5c-0.1-2.7-1.1-4.2-2.9-4.2
		c-1.7,0-2.9,1.7-2.9,4.2H331.2z"/>
	<path class="st1" d="M345.7,86.8v9.9h-2.2v-9.2c0-2-0.7-3-2.3-3c-1.7,0-2.7,1.2-2.7,3.4v8.7h-2.2v-14h2c0,0.7,0,1.3,0,2.1
		c0.6-1.6,2-2.4,3.6-2.4C344.1,82.4,345.7,83.9,345.7,86.8"/>
	<path class="st1" d="M365.7,82.5h-2.4c-0.2-1.8-1.2-2.8-2.8-2.8c-1.7,0-2.7,1.3-2.7,2.9c0,2.2,1.8,2.8,4.1,3.5
		c3.8,1.2,4.2,3.8,4.2,5.4c0,3.3-2.3,5.5-5.7,5.5c-3.4,0-5.5-2-5.6-5.8h2.5c0.2,2.3,1.3,3.5,3.1,3.5c1.8,0,3.1-1.2,3.1-3.2
		c0-1.9-1.2-2.7-4-3.6c-2.9-0.9-4.4-2.4-4.4-5c0-3.5,2.2-5.4,5.2-5.4C363.3,77.6,365.2,79.1,365.7,82.5"/>
	<path class="st1" d="M377.9,87.7h-2.3c-0.2-2-0.9-3.2-2.4-3.2c-1.1,0-1.7,0.5-2.1,1.3c-0.5,0.9-0.8,2.2-0.8,3.9
		c0,3.5,1.1,5.2,2.9,5.2c1.5,0,2.3-1.3,2.4-3.2h2.3c-0.3,3.3-2,5.3-4.6,5.3c-3.4,0-5.4-2.9-5.4-7.3c0-4.6,2.1-7.3,5.4-7.3
		C375.9,82.4,377.7,84.4,377.9,87.7"/>
	<path class="st1" d="M382.6,80.5h-2.2v-2.6h2.2V80.5z M382.6,96.8h-2.2v-14h2.2V96.8z"/>
	<path class="st1" d="M394.8,84.5c0.8,1.3,1.3,3,1.2,6h-8c0,2.8,1.2,4.5,3,4.5c1.4,0,2.4-0.9,2.7-2.4h2.2c-0.5,2.8-2.3,4.5-4.9,4.5
		c-3.5,0-5.4-3-5.4-7.3c0-4.4,2.1-7.3,5.3-7.3C392.6,82.4,393.9,83.1,394.8,84.5 M393.8,88.5c-0.1-2.7-1.1-4.2-2.9-4.2
		c-1.7,0-2.9,1.7-2.9,4.2H393.8z"/>
	<path class="st1" d="M408.2,86.8v9.9h-2.2v-9.2c0-2-0.7-3-2.3-3c-1.7,0-2.7,1.2-2.7,3.4v8.7h-2.2v-14h2c0,0.7,0,1.3,0,2.1
		c0.6-1.6,2-2.4,3.6-2.4C406.7,82.4,408.2,83.9,408.2,86.8"/>
	<path class="st1" d="M420.7,87.7h-2.3c-0.2-2-0.9-3.2-2.4-3.2c-1.1,0-1.7,0.5-2.1,1.3c-0.5,0.9-0.8,2.2-0.8,3.9
		c0,3.5,1.1,5.2,2.9,5.2c1.5,0,2.3-1.3,2.4-3.2h2.3c-0.3,3.3-2,5.3-4.6,5.3c-3.4,0-5.4-2.9-5.4-7.3c0-4.6,2.1-7.3,5.4-7.3
		C418.7,82.4,420.5,84.4,420.7,87.7"/>
	<path class="st1" d="M431.5,84.5c0.8,1.3,1.3,3,1.2,6h-8c0,2.8,1.2,4.5,3,4.5c1.4,0,2.4-0.9,2.7-2.4h2.2c-0.5,2.8-2.3,4.5-4.9,4.5
		c-3.5,0-5.4-3-5.4-7.3c0-4.4,2.1-7.3,5.3-7.3C429.3,82.4,430.6,83.1,431.5,84.5 M430.4,88.5c-0.1-2.7-1.1-4.2-2.9-4.2
		c-1.7,0-2.9,1.7-2.9,4.2H430.4z"/>
	<path class="st2" d="M87.2,46.7l-12.9,3.1c0.2,1.1,0.2,2.1,0.2,3c0,2.4-0.4,4.7-1.2,7l12.1,5.5c1.6-4,2.3-8.2,2.3-12.5
		C87.8,50.8,87.6,48.8,87.2,46.7"/>
	<path class="st3" d="M36,66.4c-1.6-1.9-2.8-4.1-3.6-6.4l-12.9,3.1c1.4,4.6,3.8,8.8,7,12.5L36,66.4z"/>
	<path class="st3" d="M29.8,26.7l9.4,9.4c1.3-1.1,2.7-2,4.2-2.7l-4.7-12.4C35.5,22.4,32.5,24.3,29.8,26.7"/>
	<path class="st3" d="M55,74.4v13.2c2.8-0.2,5.5-0.7,8.1-1.4l-4.7-12.4C57.3,74.1,56.2,74.3,55,74.4"/>
	<path class="st3" d="M62.4,72.3l4.7,12.4c3.2-1.4,6.2-3.4,8.9-5.8l-9.4-9.4C65.3,70.6,63.9,71.5,62.4,72.3"/>
	<path class="st3" d="M50.8,31.3V18c-2.8,0.2-5.5,0.7-8.1,1.4l4.7,12.4C48.4,31.6,49.6,31.4,50.8,31.3"/>
	<path class="st4" d="M59.9,32.3l5.5-12.1c-3.3-1.3-6.8-2-10.4-2.2v13.2C56.7,31.4,58.3,31.8,59.9,32.3"/>
	<path class="st4" d="M71.6,63.7c-0.6,1-1.3,2-2,2.9l9.4,9.4c1.8-2.1,3.4-4.3,4.7-6.8L71.6,63.7z"/>
	<path class="st4" d="M36.5,83.6L42,71.6c-1-0.6-2.1-1.3-3-2.1l-9.4,9.3C31.7,80.6,34,82.3,36.5,83.6"/>
	<path class="st4" d="M18,52.8c0,2.1,0.2,4.1,0.6,6.2l12.9-3.1c-0.2-1.1-0.2-2.1-0.2-3.1c0-2.4,0.4-4.7,1.2-7l-12.1-5.5
		C18.8,44.4,18,48.6,18,52.8"/>
	<path class="st4" d="M73.2,23.8c-1.3-0.9-2.7-1.8-4.2-2.5l-5.9,13c1.3,0.7,2.6,1.6,3.7,2.6l10.2-10C75.8,25.8,74.5,24.8,73.2,23.8"
		/>
	<path class="st5" d="M67.1,16.4l5.7-12.5C67.2,1.5,61.2,0.2,55,0v13.8C59.2,14,63.3,14.9,67.1,16.4"/>
	<path class="st5" d="M86.2,42.6c-1.4-4.6-3.8-8.9-7-12.6l-9.4,9.3c1.6,1.9,2.8,4.1,3.6,6.5L86.2,42.6z"/>
	<path class="st5" d="M79.2,23.9l9.8-9.7c-3.7-3.5-7.9-6.4-12.4-8.7L71,18.1C74,19.7,76.7,21.7,79.2,23.9"/>
	<path class="st5" d="M26.8,29.7c-1.8,2.1-3.4,4.3-4.7,6.8L34.1,42c0.6-1,1.3-2,2-2.9L26.8,29.7z"/>
	<path class="st5" d="M55,91.9v13.8c4.9-0.2,9.8-1.1,14.4-2.6l-4.8-12.9C61.5,91.1,58.3,91.7,55,91.9"/>
	<path class="st5" d="M104.7,42.4l-13.4,3.2c0.4,2.4,0.7,4.8,0.7,7.1c0,4.9-0.9,9.7-2.7,14.2l12.5,5.7c2.6-6.3,3.9-13,3.9-19.9
		C105.8,49.4,105.4,45.9,104.7,42.4"/>
	<path class="st5" d="M0,52.8c0,3.5,0.4,7,1,10.5L14.4,60c-0.4-2.4-0.7-4.8-0.7-7.2c0-4.9,0.9-9.7,2.7-14.2L3.9,32.9
		C1.3,39.2,0,45.9,0,52.8"/>
	<path class="st5" d="M50.8,87.6V74.4c-1.7-0.2-3.3-0.5-4.9-1.1l-5.5,12.1C43.7,86.7,47.2,87.4,50.8,87.6"/>
	<path class="st5" d="M29.1,100l5.7-12.5c-3-1.6-5.8-3.5-8.3-5.8l-9.8,9.7C20.4,94.8,24.6,97.8,29.1,100"/>
	<path class="st5" d="M50.8,13.8V0C45.8,0.2,41,1.1,36.3,2.6l4.8,12.9C44.2,14.5,47.4,14,50.8,13.8"/>
	<path class="st5" d="M23.6,78.7c-3.7-4.2-6.5-9.2-8.1-14.5L2.1,67.4c2.2,7.7,6.2,14.9,11.7,20.9L23.6,78.7z"/>
	<path class="st5" d="M17,14l9.7,9.7c3.2-2.8,6.6-5.1,10.4-6.8L32.3,4.1C26.7,6.5,21.6,9.8,17,14"/>
	<path class="st1" d="M119.1,104.2l-22.3-21c1.5-2.2,2.9-4.4,4.1-6.8l-13.5-6.1c-4.1,8.1-11,14.6-19.4,18.2l5.2,13.9
		c4.4-1.8,8.4-4.2,12.1-7l20.8,22c0.8,0.8,2.2,0.7,3.1-0.2l9.8-9.8C119.8,106.4,119.9,105,119.1,104.2"/>
	<path class="st1" d="M91.8,22.7c3.1,3.9,5.5,8.4,7.2,13l-6.3,1.5c-1.4-3.5-3.3-6.9-5.6-10L91.8,22.7 M92.1,16.5L81.5,27
		c3.9,4.3,6.9,9.5,8.5,15.3l14.4-3.5C102.1,30.3,97.8,22.7,92.1,16.5"/>
	<path class="st1" d="M40.6,93.8c2.1,0.6,4.3,1.1,6.5,1.4v6.5c-3.1-0.4-6.2-1-9.2-2L40.6,93.8 M38.4,88.6l-6.1,13.5
		c5.9,2.5,12.3,3.9,19.1,4.1V91.4C46.7,91.2,42.4,90.2,38.4,88.6"/>
	<path class="st1" d="M14.2,22.3l4.6,4.6c-0.8,1-1.5,2-2.1,3.1l-5.9-2.7C11.8,25.6,13,23.9,14.2,22.3 M14,16.2
		c-3.6,3.9-6.7,8.3-9.1,13.1l13.5,6.1c1.6-3.2,3.7-6.1,6.1-8.7L14,16.2z"/>
</g>
</svg>
